{"title":"Jonah.Hex.2010.BRRip.480p.XviD.Feel-Free","uid":5860438,"size":1448346332,"categoryP":"video","categoryS":"movies","magnet":"?xt=urn:btih:da61495832258ac7a14cdc28ea7e76e4c59031cf&amp;dn=Jonah.Hex.2010.BRRip.480p.XviD.Feel-Free&amp;tr=udp%3A%2F%2Ftracker.openbittorrent.com%3A80&amp;tr=udp%3A%2F%2Fopen.demonii.com%3A1337&amp;tr=udp%3A%2F%2Ftracker.coppersurfer.tk%3A6969&amp;tr=udp%3A%2F%2Fexodus.desync.com%3A6969","seeders":1,"leechers":0,"uploader":"neon","files":-1,"time":1285947371,"description":"Genre:Action | Drama | Thriller | Western\nLanguage:English\n &lt;a href=&quot; http://www.imdb.com/title/tt1075747/&quot; rel=&quot;nofollow&quot; target=&quot;_NEW&quot;&gt; http://www.imdb.com/title/tt1075747/&lt;/a&gt;\nSource:720p DTS x264-CHD\nSubtitles:Romana\n\nGeneral\nComplete name :Jonah.Hex.2010.BRRip.480p.XviD.Feel-Free\nFormat : AVI\nFormat/Info : Audio Video Interleave\nFile size : 1.35 GiB\nDuration : 1h 21mn\nOverall bit rate : 2 369 Kbps\nVideo #0\nMuxing mode : Packed bitstream\nCodec ID : XVID\nCodec ID/Hint : XviD\nDuration : 1h 21mn\nBit rate : 1 587 Kbps\nWidth : 688 pixels\nHeight : 288 pixels\nDisplay aspect ratio : 2.35:1\nFrame rate : 23.976 fps\nResolution : 24 bits\nColorimetry : 4:2:0\nScan type : Progressive\nBits/(Pixel*Frame) : 0.334\nStream size : 925 MiB (67%)\nWriting library : XviD 1.2.1 (UTC 2008-12-04)\nAudio #1\nID : 1\nFormat : AC-3\nFormat/Info : Audio Coding 3\nCodec ID : 2000\nDuration : 1h 21mn\nBit rate mode : Constant\nBit rate : 448 Kbps\nChannel(s) : 6 channels\nChannel positions : Front: L C R, Surround: L R, LFE\nSampling rate : 48.0 KHz\nStream size : 261 MiB (19%)\nAlignment : Split accross interleaves\nInterleave, duration : 42 ms (1.00 video frame)\nInterleave, preload duration : 500 ms\nAudio #2\nID : 2\nFormat : MPEG Audio\nFormat version : Version 1\nFormat profile : Layer 3\nCodec ID : 55\nCodec ID/Hint : MP3\nDuration : 1h 21mn\nBit rate mode : Constant\nBit rate : 320 Kbps\nChannel(s) : 2 channels\nSampling rate : 48.0 KHz\nResolution : 16 bits\nStream size : 186 MiB (14%)\nAlignment : Aligned on interleaves\nInterleave, duration : 42 ms (1.00 video frame)\nInterleave, preload duration : 504 ms\nWriting library : LAME3.98.2\n\nNotes&gt;Audio 1-Ac3.448kbps.Engleza/Audio 2-Mp3.320kbps.Engleza\n\nPlot:\nThe U.S. military makes a scarred bounty hunter with warrants on his own head an offer he cannot refuse: in exchange for his freedom, he must stop a terrorist who is ready to unleash Hell on Earth.","torrent":{"xt":"urn:btih:da61495832258ac7a14cdc28ea7e76e4c59031cf","amp;dn":"Jonah.Hex.2010.BRRip.480p.XviD.Feel-Free","amp;tr":["udp%3A%2F%2Ftracker.openbittorrent.com%3A80","udp%3A%2F%2Fopen.demonii.com%3A1337","udp%3A%2F%2Ftracker.coppersurfer.tk%3A6969","udp%3A%2F%2Fexodus.desync.com%3A6969"],"infoHash":"da61495832258ac7a14cdc28ea7e76e4c59031cf","infoHashBuffer":{"type":"Buffer","data":[218,97,73,88,50,37,138,199,161,76,220,40,234,126,118,228,197,144,49,207]},"announce":[],"urlList":[]}}